<?xml version="1.0" encoding="utf-8"?>
<!-- Generator: Adobe Illustrator 19.2.1, SVG Export Plug-In . SVG Version: 6.00 Build 0)  -->
<svg version="1.1" id="Calque_1" xmlns="http://www.w3.org/2000/svg" xmlns:xlink="http://www.w3.org/1999/xlink" x="0px" y="0px"
	 viewBox="0 0 118.1 118.1" style="enable-background:new 0 0 118.1 118.1;" xml:space="preserve">
<style type="text/css">
	.st0{fill:#FFFFFF;}
	.st1{fill:#D4471B;}
	.st2{clip-path:url(#SVGID_2_);}
</style>
<path class="st0" d="M59.1,118.1C26.5,118.1,0,91.6,0,59.1C0,26.5,26.5,0,59.1,0c32.6,0,59.1,26.5,59.1,59.1
	C118.1,91.6,91.6,118.1,59.1,118.1z"/>
<path id="XMLID_7_" class="st1" d="M59.1,6c29.3,0,53.1,23.7,53.1,53.1s-23.7,53.1-53.1,53.1S6,88.4,6,59.1S29.7,6,59.1,6z"/>
<g id="XMLID_6_">
	<g>
		<defs>
			<path id="SVGID_1_" d="M59.1,6c29.3,0,53.1,23.7,53.1,53.1s-23.7,53.1-53.1,53.1S6,88.4,6,59.1S29.7,6,59.1,6z"/>
		</defs>
		<clipPath id="SVGID_2_">
			<use xlink:href="#SVGID_1_"  style="overflow:visible;"/>
		</clipPath>
		<g id="XMLID_2_" class="st2">
			<g id="XMLID_5_">
				<g>
					<path id="XMLID_16_" class="st0" d="M86.3,47.7c-1.2-2.7-2.5-4.8-4.2-6.4c-1.7-1.5-3.7-2.5-6-2.9c-1.9-0.4-3.7-0.6-5.4-0.8
						c-0.2,0-0.6,0-0.8,0c-1,0-1.7,0-2.7,0.2l2.1-61.5c0-3.1-2.5-5.4-5.6-5.4h-8.3c-3.1,0-5.6,2.5-5.6,5.4l1.7,61.5
						c-1-0.2-2.1-0.2-3.3-0.2c-0.2,0-0.6,0-0.8,0c-1.7,0-3.7,0.2-5.4,0.6c-2.1,0.4-4.1,1.4-6,2.9c-1.7,1.5-3.3,3.5-4.4,6.4
						c-1.2,2.7-1.7,6.4-1.7,10.8v27.4l0,0c1.4,0.4,2.5,0.6,3.5,0.6l0,0c1.2,0,2.1,0.2,2.9,0.2l0,0l0,0c0.8,0,1.7,0,2.9-0.2l0,0
						c1.2,0,2.3-0.2,3.7-0.6V67.5c0-3.3,0.6-9.3,1.5-10.6c0.8-1,1.7-1.7,3.1-1.9c1.4,0.2,2.3,1,3.1,1.9c1,1.4,1.4,7.5,1.4,10.6v18.1
						c1.4,0.4,2.5,0.6,3.5,0.6h0.2c1.2,0,2.1,0.2,2.9,0.2l0,0l0,0c0.8,0,1.7,0,2.9-0.2c0,0,0,0,0.2,0c1.2,0,2.3-0.2,3.5-0.6V67.5
						c0-3.3,0.4-9.3,1.4-10.6c0.6-1,1.7-1.7,3.1-1.9c1.4,0.2,2.5,1,3.1,1.9c1,1.4,1.4,7.5,1.4,10.6v18.1c1.4,0.4,2.5,0.6,3.7,0.6
						l0,0c1.2,0,2.1,0.2,2.9,0.2l0,0l0,0c0.8,0,1.7,0,2.9-0.2l0,0c1.2,0,2.3-0.2,3.5-0.6l0,0V58.3C88,54,87.4,50.4,86.3,47.7z"/>
				</g>
			</g>
		</g>
	</g>
</g>
</svg>
